<svg xmlns="http://www.w3.org/2000/svg" xmlns:xlink="http://www.w3.org/1999/xlink" width="500" zoomAndPan="magnify" viewBox="0 0 375 374.999991" height="500" preserveAspectRatio="xMidYMid meet" version="1.0"><defs><g/><clipPath id="d68eb86de0"><path d="M 14.699219 14.914062 L 359.699219 14.914062 L 359.699219 359.914062 L 14.699219 359.914062 Z M 14.699219 14.914062 " clip-rule="nonzero"/></clipPath><clipPath id="11ad6487a9"><path d="M 14.699219 14.914062 L 360.449219 14.914062 L 360.449219 349.414062 L 14.699219 349.414062 Z M 14.699219 14.914062 " clip-rule="nonzero"/></clipPath></defs><g fill="#ffffff" fill-opacity="1"><g transform="translate(91.327155, 251.075741)"><g><path d="M 11.0625 -5.265625 L 13.234375 -12.78125 L 11.65625 -17.765625 L 10.171875 -17.765625 L 10.171875 -18.265625 L 18.265625 -18.265625 L 18.265625 -17.765625 L 16.71875 -17.765625 L 20.609375 -5.421875 L 23.75 -17.765625 L 21.109375 -17.765625 L 21.109375 -18.265625 L 26.328125 -18.265625 L 26.328125 -17.765625 L 24.609375 -17.765625 L 19.8125 0.265625 L 17.484375 0.265625 L 13.625 -11.53125 L 10.234375 0.265625 L 7.953125 0.265625 L 1.390625 -17.765625 L 0.15625 -17.765625 L 0.15625 -18.265625 L 8.640625 -18.265625 L 8.640625 -17.765625 L 6.8125 -17.765625 Z M 11.0625 -5.265625 "/></g></g></g><g fill="#ffffff" fill-opacity="1"><g transform="translate(117.816335, 251.075741)"><g><path d="M 13.078125 -8.0625 L 13.078125 -10 C 13.078125 -13.175781 12.921875 -15.179688 12.609375 -16.015625 C 12.253906 -16.972656 11.753906 -17.566406 11.109375 -17.796875 C 10.742188 -17.929688 10.300781 -18 9.78125 -18 C 9.257812 -18 8.8125 -17.929688 8.4375 -17.796875 C 8.0625 -17.660156 7.753906 -17.414062 7.515625 -17.0625 C 7.273438 -16.71875 7.078125 -16.351562 6.921875 -15.96875 C 6.773438 -15.582031 6.660156 -15.039062 6.578125 -14.34375 C 6.472656 -13.34375 6.421875 -11.859375 6.421875 -9.890625 L 6.421875 -8.015625 C 6.421875 -5.890625 6.503906 -4.378906 6.671875 -3.484375 C 6.835938 -2.585938 7.039062 -1.945312 7.28125 -1.5625 C 7.820312 -0.707031 8.65625 -0.28125 9.78125 -0.28125 C 11.15625 -0.28125 12.046875 -0.859375 12.453125 -2.015625 C 12.867188 -3.171875 13.078125 -5.1875 13.078125 -8.0625 Z M 9.734375 0.265625 C 6.828125 0.265625 4.65625 -0.519531 3.21875 -2.09375 C 1.78125 -3.675781 1.0625 -5.957031 1.0625 -8.9375 C 1.0625 -11.914062 1.832031 -14.257812 3.375 -15.96875 C 4.914062 -17.6875 7.09375 -18.546875 9.90625 -18.546875 C 12.726562 -18.546875 14.859375 -17.734375 16.296875 -16.109375 C 17.734375 -14.484375 18.453125 -12.175781 18.453125 -9.1875 C 18.453125 -6.195312 17.722656 -3.875 16.265625 -2.21875 C 14.816406 -0.5625 12.640625 0.265625 9.734375 0.265625 Z M 9.734375 0.265625 "/></g></g></g><g fill="#ffffff" fill-opacity="1"><g transform="translate(137.337425, 251.075741)"><g><path d="M 0.546875 -18.265625 L 9.9375 -18.265625 L 9.9375 -17.6875 L 7.171875 -17.6875 L 7.171875 -0.578125 L 8.109375 -0.578125 C 9.585938 -0.578125 10.765625 -1.023438 11.640625 -1.921875 C 12.523438 -2.828125 13.421875 -4.222656 14.328125 -6.109375 L 14.875 -6.109375 L 14.375 0 L 0.546875 0 L 0.546875 -0.578125 L 2.09375 -0.578125 L 2.09375 -17.6875 L 0.546875 -17.6875 Z M 0.546875 -18.265625 "/></g></g></g><g fill="#ffffff" fill-opacity="1"><g transform="translate(152.891661, 251.075741)"><g><path d="M 0.546875 -18.265625 L 14.109375 -18.265625 L 14.375 -12.84375 L 13.90625 -12.84375 C 13.257812 -14.71875 12.515625 -15.992188 11.671875 -16.671875 C 10.828125 -17.347656 9.570312 -17.6875 7.90625 -17.6875 L 7.171875 -17.6875 L 7.171875 -9.21875 L 8.34375 -9.21875 C 9.1875 -9.21875 9.882812 -9.519531 10.4375 -10.125 C 10.988281 -10.726562 11.367188 -11.5625 11.578125 -12.625 L 11.984375 -12.625 L 11.984375 -4.90625 L 11.53125 -4.90625 C 11.25 -6.207031 10.859375 -7.132812 10.359375 -7.6875 C 9.867188 -8.25 9.195312 -8.53125 8.34375 -8.53125 L 7.171875 -8.53125 L 7.171875 -0.578125 L 10.40625 -0.578125 L 10.40625 0 L 0.546875 0 L 0.546875 -0.578125 L 2.09375 -0.578125 L 2.09375 -17.6875 L 0.546875 -17.6875 Z M 0.546875 -18.265625 "/></g></g></g><g fill="#ffffff" fill-opacity="1"><g transform="translate(168.341504, 251.075741)"><g/></g></g><g fill="#ffffff" fill-opacity="1"><g transform="translate(173.039097, 251.075741)"><g><path d="M 16.59375 -18.265625 L 16.859375 -11.71875 L 16.359375 -11.71875 C 15.597656 -14.03125 14.921875 -15.609375 14.328125 -16.453125 C 13.734375 -17.296875 12.878906 -17.71875 11.765625 -17.71875 L 11.453125 -17.71875 L 11.453125 -0.546875 L 13.671875 -0.546875 L 13.671875 0 L 4.15625 0 L 4.15625 -0.546875 L 6.359375 -0.546875 L 6.359375 -17.71875 L 6.03125 -17.71875 C 4.914062 -17.71875 4.050781 -17.273438 3.4375 -16.390625 C 2.832031 -15.515625 2.164062 -13.957031 1.4375 -11.71875 L 0.9375 -11.71875 L 1.203125 -18.265625 Z M 16.59375 -18.265625 "/></g></g></g><g fill="#ffffff" fill-opacity="1"><g transform="translate(190.86383, 251.075741)"><g><path d="M 11.265625 -0.5 L 9.375 -6.125 L 4.203125 -6.125 L 2.1875 -0.5 L 4.15625 -0.5 L 4.15625 0 L 0.15625 0 L 0.15625 -0.5 L 1.390625 -0.5 L 8.03125 -18.421875 L 10.171875 -18.421875 L 16.75 -0.5 L 17.953125 -0.5 L 17.953125 0 L 9.421875 0 L 9.421875 -0.5 Z M 6.890625 -13.546875 L 4.4375 -6.703125 L 9.15625 -6.703125 Z M 6.890625 -13.546875 "/></g></g></g><g fill="#ffffff" fill-opacity="1"><g transform="translate(208.975638, 251.075741)"><g><path d="M 16.59375 -18.265625 L 16.859375 -11.71875 L 16.359375 -11.71875 C 15.597656 -14.03125 14.921875 -15.609375 14.328125 -16.453125 C 13.734375 -17.296875 12.878906 -17.71875 11.765625 -17.71875 L 11.453125 -17.71875 L 11.453125 -0.546875 L 13.671875 -0.546875 L 13.671875 0 L 4.15625 0 L 4.15625 -0.546875 L 6.359375 -0.546875 L 6.359375 -17.71875 L 6.03125 -17.71875 C 4.914062 -17.71875 4.050781 -17.273438 3.4375 -16.390625 C 2.832031 -15.515625 2.164062 -13.957031 1.4375 -11.71875 L 0.9375 -11.71875 L 1.203125 -18.265625 Z M 16.59375 -18.265625 "/></g></g></g><g fill="#ffffff" fill-opacity="1"><g transform="translate(226.80037, 251.075741)"><g><path d="M 16.59375 -18.265625 L 16.859375 -11.71875 L 16.359375 -11.71875 C 15.597656 -14.03125 14.921875 -15.609375 14.328125 -16.453125 C 13.734375 -17.296875 12.878906 -17.71875 11.765625 -17.71875 L 11.453125 -17.71875 L 11.453125 -0.546875 L 13.671875 -0.546875 L 13.671875 0 L 4.15625 0 L 4.15625 -0.546875 L 6.359375 -0.546875 L 6.359375 -17.71875 L 6.03125 -17.71875 C 4.914062 -17.71875 4.050781 -17.273438 3.4375 -16.390625 C 2.832031 -15.515625 2.164062 -13.957031 1.4375 -11.71875 L 0.9375 -11.71875 L 1.203125 -18.265625 Z M 16.59375 -18.265625 "/></g></g></g><g fill="#ffffff" fill-opacity="1"><g transform="translate(244.625103, 251.075741)"><g><path d="M 13.078125 -8.0625 L 13.078125 -10 C 13.078125 -13.175781 12.921875 -15.179688 12.609375 -16.015625 C 12.253906 -16.972656 11.753906 -17.566406 11.109375 -17.796875 C 10.742188 -17.929688 10.300781 -18 9.78125 -18 C 9.257812 -18 8.8125 -17.929688 8.4375 -17.796875 C 8.0625 -17.660156 7.753906 -17.414062 7.515625 -17.0625 C 7.273438 -16.71875 7.078125 -16.351562 6.921875 -15.96875 C 6.773438 -15.582031 6.660156 -15.039062 6.578125 -14.34375 C 6.472656 -13.34375 6.421875 -11.859375 6.421875 -9.890625 L 6.421875 -8.015625 C 6.421875 -5.890625 6.503906 -4.378906 6.671875 -3.484375 C 6.835938 -2.585938 7.039062 -1.945312 7.28125 -1.5625 C 7.820312 -0.707031 8.65625 -0.28125 9.78125 -0.28125 C 11.15625 -0.28125 12.046875 -0.859375 12.453125 -2.015625 C 12.867188 -3.171875 13.078125 -5.1875 13.078125 -8.0625 Z M 9.734375 0.265625 C 6.828125 0.265625 4.65625 -0.519531 3.21875 -2.09375 C 1.78125 -3.675781 1.0625 -5.957031 1.0625 -8.9375 C 1.0625 -11.914062 1.832031 -14.257812 3.375 -15.96875 C 4.914062 -17.6875 7.09375 -18.546875 9.90625 -18.546875 C 12.726562 -18.546875 14.859375 -17.734375 16.296875 -16.109375 C 17.734375 -14.484375 18.453125 -12.175781 18.453125 -9.1875 C 18.453125 -6.195312 17.722656 -3.875 16.265625 -2.21875 C 14.816406 -0.5625 12.640625 0.265625 9.734375 0.265625 Z M 9.734375 0.265625 "/></g></g></g><g fill="#ffffff" fill-opacity="1"><g transform="translate(264.146193, 251.075741)"><g><path d="M 13.078125 -8.0625 L 13.078125 -10 C 13.078125 -13.175781 12.921875 -15.179688 12.609375 -16.015625 C 12.253906 -16.972656 11.753906 -17.566406 11.109375 -17.796875 C 10.742188 -17.929688 10.300781 -18 9.78125 -18 C 9.257812 -18 8.8125 -17.929688 8.4375 -17.796875 C 8.0625 -17.660156 7.753906 -17.414062 7.515625 -17.0625 C 7.273438 -16.71875 7.078125 -16.351562 6.921875 -15.96875 C 6.773438 -15.582031 6.660156 -15.039062 6.578125 -14.34375 C 6.472656 -13.34375 6.421875 -11.859375 6.421875 -9.890625 L 6.421875 -8.015625 C 6.421875 -5.890625 6.503906 -4.378906 6.671875 -3.484375 C 6.835938 -2.585938 7.039062 -1.945312 7.28125 -1.5625 C 7.820312 -0.707031 8.65625 -0.28125 9.78125 -0.28125 C 11.15625 -0.28125 12.046875 -0.859375 12.453125 -2.015625 C 12.867188 -3.171875 13.078125 -5.1875 13.078125 -8.0625 Z M 9.734375 0.265625 C 6.828125 0.265625 4.65625 -0.519531 3.21875 -2.09375 C 1.78125 -3.675781 1.0625 -5.957031 1.0625 -8.9375 C 1.0625 -11.914062 1.832031 -14.257812 3.375 -15.96875 C 4.914062 -17.6875 7.09375 -18.546875 9.90625 -18.546875 C 12.726562 -18.546875 14.859375 -17.734375 16.296875 -16.109375 C 17.734375 -14.484375 18.453125 -12.175781 18.453125 -9.1875 C 18.453125 -6.195312 17.722656 -3.875 16.265625 -2.21875 C 14.816406 -0.5625 12.640625 0.265625 9.734375 0.265625 Z M 9.734375 0.265625 "/></g></g></g><g fill="#ffffff" fill-opacity="1"><g transform="translate(197.45485, 272.037433)"><g><path d="M 7.167969 0.230469 C 10.289062 0.230469 12.671875 -1.972656 12.671875 -4.839844 C 12.671875 -7.5 10.570312 -8.90625 8.730469 -10.394531 C 7.089844 -11.699219 5.503906 -12.773438 5.503906 -14.335938 C 5.503906 -15.84375 6.679688 -16.5625 7.859375 -16.5625 C 8.960938 -16.5625 10.035156 -15.921875 10.035156 -14.667969 C 10.035156 -14.335938 9.984375 -14.179688 9.984375 -13.925781 C 9.984375 -13.488281 10.316406 -13.207031 10.777344 -13.207031 C 11.339844 -13.207031 11.699219 -13.769531 11.699219 -14.746094 C 11.699219 -17.046875 9.828125 -18.175781 7.910156 -18.175781 C 5.835938 -18.175781 3.710938 -16.894531 3.710938 -14.410156 C 3.710938 -12.003906 5.757812 -10.496094 7.679688 -9.011719 C 9.292969 -7.757812 10.878906 -6.628906 10.878906 -4.839844 C 10.878906 -2.839844 9.34375 -1.382812 7.167969 -1.382812 C 5.09375 -1.382812 3.582031 -2.714844 3.582031 -4.503906 C 3.582031 -5.527344 4.042969 -6.476562 4.042969 -6.960938 C 4.042969 -7.398438 3.710938 -7.730469 3.25 -7.730469 C 2.816406 -7.730469 2.457031 -7.421875 2.277344 -6.9375 C 1.945312 -6.015625 1.792969 -5.222656 1.792969 -4.53125 C 1.792969 -1.714844 3.992188 0.230469 7.167969 0.230469 Z M 7.167969 0.230469 "/></g></g></g><g fill="#ffffff" fill-opacity="1"><g transform="translate(209.739887, 272.037433)"><g><path d="M 7.78125 -5.964844 C 6.835938 -3.558594 5.632812 -1.613281 4.09375 -1.613281 C 2.917969 -1.613281 2.328125 -2.40625 2.328125 -4.148438 C 2.328125 -5.195312 2.535156 -6.988281 2.816406 -8.703125 C 2.890625 -9.113281 2.996094 -9.878906 3.121094 -10.800781 C 4.402344 -10.675781 5.296875 -10.496094 5.605469 -10.496094 C 6.015625 -10.496094 6.269531 -10.851562 6.269531 -11.210938 C 6.269531 -11.519531 6.09375 -11.800781 5.683594 -11.902344 C 4.890625 -12.109375 4.121094 -12.210938 3.328125 -12.285156 C 3.507812 -13.769531 3.6875 -15.230469 3.6875 -15.742188 C 3.6875 -16.253906 3.378906 -16.585938 2.890625 -16.585938 C 2.378906 -16.585938 2.023438 -16.28125 1.996094 -15.769531 C 1.945312 -14.640625 1.816406 -13.488281 1.664062 -12.390625 L 0.792969 -12.390625 C 0.203125 -12.390625 -0.078125 -12.03125 -0.078125 -11.671875 C -0.078125 -11.289062 0.203125 -10.929688 0.742188 -10.929688 L 1.460938 -10.929688 C 1.355469 -10.214844 1.253906 -9.546875 1.152344 -8.960938 C 0.871094 -7.167969 0.640625 -5.425781 0.640625 -4.273438 C 0.640625 -1.535156 1.792969 -0.0273438 3.96875 -0.0273438 C 6.476562 -0.0273438 8.039062 -2.738281 9.011719 -5.425781 C 9.0625 -5.582031 9.085938 -5.707031 9.085938 -5.835938 C 9.085938 -6.269531 8.804688 -6.554688 8.472656 -6.554688 C 8.21875 -6.554688 7.933594 -6.375 7.78125 -5.964844 Z M 7.78125 -5.964844 "/></g></g></g><g fill="#ffffff" fill-opacity="1"><g transform="translate(216.675807, 272.037433)"><g><path d="M 12.003906 -5.964844 C 10.828125 -3.019531 10.035156 -1.511719 9.417969 -1.511719 C 8.78125 -1.511719 8.523438 -2.433594 8.523438 -4.632812 C 8.523438 -5.785156 8.601562 -7.269531 8.933594 -9.417969 C 9.011719 -9.933594 8.652344 -10.316406 8.164062 -10.316406 C 7.679688 -10.316406 7.347656 -10.035156 7.296875 -9.574219 C 7.191406 -8.601562 7.066406 -7.527344 6.988281 -6.425781 C 6.578125 -3.046875 4.992188 -1.511719 3.53125 -1.511719 C 2.664062 -1.511719 2.226562 -1.972656 2.226562 -2.917969 C 2.226562 -4.402344 2.839844 -7.066406 2.839844 -8.933594 C 2.839844 -9.878906 2.097656 -10.699219 1.203125 -10.699219 C 0.714844 -10.699219 0.382812 -10.394531 0.382812 -9.957031 C 0.382812 -9.292969 1.125 -9.445312 1.125 -8.472656 C 1.125 -7.167969 0.539062 -4.785156 0.539062 -2.816406 C 0.539062 -1.074219 1.714844 0.078125 3.40625 0.078125 C 4.839844 0.078125 6.117188 -0.742188 7.066406 -2.484375 C 7.421875 -0.613281 8.292969 0.078125 9.265625 0.078125 C 10.699219 0.078125 11.699219 -1.332031 13.234375 -5.425781 C 13.285156 -5.554688 13.3125 -5.65625 13.3125 -5.757812 C 13.3125 -6.195312 12.976562 -6.476562 12.644531 -6.476562 C 12.414062 -6.476562 12.160156 -6.324219 12.003906 -5.964844 Z M 12.003906 -5.964844 "/></g></g></g><g fill="#ffffff" fill-opacity="1"><g transform="translate(227.834712, 272.037433)"><g><path d="M 13.59375 -5.964844 C 12.59375 -3.558594 11.339844 -1.613281 10.417969 -1.613281 C 9.496094 -1.613281 9.0625 -3.277344 8.832031 -5.222656 C 10.109375 -7.347656 12.570312 -12.183594 12.570312 -15.488281 C 12.570312 -17.226562 11.699219 -18.148438 10.417969 -18.148438 C 8.675781 -18.148438 7.039062 -16.535156 7.015625 -10.164062 C 6.605469 -10.417969 6.117188 -10.570312 5.527344 -10.570312 C 2.558594 -10.570312 0.613281 -6.859375 0.613281 -3.8125 C 0.613281 -1.332031 2.046875 0.0507812 3.863281 0.0507812 C 5.476562 0.0507812 6.859375 -1.175781 7.652344 -2.714844 C 8.039062 -1.023438 9.011719 -0.0273438 10.1875 -0.0273438 C 12.234375 -0.0273438 13.695312 -2.636719 14.820312 -5.425781 C 14.871094 -5.554688 14.898438 -5.65625 14.898438 -5.785156 C 14.898438 -6.195312 14.566406 -6.527344 14.230469 -6.527344 C 14 -6.527344 13.746094 -6.347656 13.59375 -5.964844 Z M 10.339844 -16.5625 C 10.675781 -16.5625 10.90625 -16.332031 10.90625 -15.539062 C 10.90625 -14.359375 10.035156 -10.597656 8.675781 -7.859375 C 8.652344 -8.445312 8.652344 -8.984375 8.652344 -9.445312 C 8.652344 -15.460938 9.753906 -16.5625 10.339844 -16.5625 Z M 4.019531 -1.535156 C 2.996094 -1.535156 2.304688 -2.253906 2.304688 -3.917969 C 2.304688 -6.117188 3.660156 -9.035156 5.734375 -9.035156 C 6.679688 -9.035156 7.320312 -8.292969 7.320312 -6.859375 C 7.320312 -3.609375 5.402344 -1.535156 4.019531 -1.535156 Z M 4.019531 -1.535156 "/></g></g></g><g fill="#ffffff" fill-opacity="1"><g transform="translate(240.580431, 272.037433)"><g><path d="M 2.585938 -11.542969 C 3.148438 -11.542969 3.582031 -11.980469 3.582031 -12.542969 C 3.582031 -13.105469 3.148438 -13.542969 2.585938 -13.542969 C 2.023438 -13.542969 1.585938 -13.105469 1.585938 -12.542969 C 1.585938 -11.980469 2.023438 -11.542969 2.585938 -11.542969 Z M 3.378906 0.101562 C 4.941406 0.101562 6.269531 -1.535156 7.703125 -5.425781 C 7.757812 -5.554688 7.78125 -5.683594 7.78125 -5.785156 C 7.78125 -6.21875 7.472656 -6.527344 7.140625 -6.527344 C 6.886719 -6.527344 6.628906 -6.347656 6.476562 -5.964844 C 5.222656 -2.867188 4.429688 -1.484375 3.582031 -1.484375 C 2.96875 -1.484375 2.433594 -2.023438 2.433594 -3.839844 C 2.433594 -4.941406 2.558594 -6.296875 2.996094 -9.164062 C 3.097656 -9.828125 2.664062 -10.214844 2.226562 -10.214844 C 1.816406 -10.214844 1.40625 -9.933594 1.28125 -9.242188 C 1.023438 -7.808594 0.742188 -5.324219 0.742188 -3.992188 C 0.742188 -1 1.894531 0.101562 3.378906 0.101562 Z M 3.378906 0.101562 "/></g></g></g><g fill="#ffffff" fill-opacity="1"><g transform="translate(246.211072, 272.037433)"><g><path d="M 11.109375 -5.964844 C 10.597656 -4.761719 9.933594 -4.019531 9.0625 -3.738281 C 9.292969 -4.402344 9.394531 -5.171875 9.394531 -5.964844 C 9.394531 -8.089844 8.445312 -9.597656 7.191406 -10.085938 C 6.730469 -10.265625 6.039062 -10.445312 5.425781 -10.445312 C 2.714844 -10.445312 0.5625 -7.78125 0.5625 -4.351562 C 0.5625 -1.636719 2.074219 0.0507812 4.429688 0.0507812 C 6.066406 0.0507812 7.449219 -0.792969 8.34375 -2.148438 C 9.957031 -2.277344 11.519531 -3.351562 12.339844 -5.425781 C 12.390625 -5.582031 12.414062 -5.734375 12.414062 -5.863281 C 12.414062 -6.296875 12.132812 -6.578125 11.800781 -6.578125 C 11.570312 -6.578125 11.289062 -6.398438 11.109375 -5.964844 Z M 7.296875 -3.660156 C 6.167969 -3.96875 5.246094 -4.992188 5.246094 -6.628906 C 5.246094 -7.933594 5.65625 -8.652344 6.324219 -8.652344 C 7.191406 -8.652344 7.703125 -7.601562 7.703125 -5.9375 C 7.703125 -5.09375 7.550781 -4.300781 7.296875 -3.660156 Z M 4.480469 -1.535156 C 2.917969 -1.535156 2.253906 -2.890625 2.253906 -4.429688 C 2.253906 -6.015625 2.945312 -7.808594 4.199219 -8.550781 C 3.890625 -7.988281 3.710938 -7.296875 3.710938 -6.527344 C 3.710938 -4.378906 4.914062 -2.945312 6.476562 -2.378906 C 5.9375 -1.84375 5.246094 -1.535156 4.480469 -1.535156 Z M 4.480469 -1.535156 "/></g></g></g><g clip-path="url(#d68eb86de0)"><path fill="#000000" d="M 359.699219 187.414062 C 359.699219 190.238281 359.628906 193.058594 359.488281 195.878906 C 359.351562 198.699219 359.144531 201.515625 358.867188 204.324219 C 358.589844 207.132812 358.246094 209.933594 357.832031 212.726562 C 357.417969 215.519531 356.933594 218.300781 356.382812 221.070312 C 355.832031 223.839844 355.214844 226.589844 354.527344 229.328125 C 353.84375 232.070312 353.089844 234.789062 352.269531 237.488281 C 351.449219 240.191406 350.566406 242.871094 349.613281 245.53125 C 348.664062 248.1875 347.648438 250.820312 346.566406 253.429688 C 345.488281 256.035156 344.34375 258.617188 343.136719 261.167969 C 341.929688 263.722656 340.660156 266.242188 339.328125 268.730469 C 338 271.222656 336.605469 273.675781 335.15625 276.097656 C 333.703125 278.519531 332.195312 280.90625 330.625 283.25 C 329.058594 285.597656 327.433594 287.90625 325.75 290.175781 C 324.070312 292.441406 322.332031 294.667969 320.542969 296.847656 C 318.75 299.03125 316.90625 301.167969 315.011719 303.261719 C 313.117188 305.351562 311.167969 307.394531 309.171875 309.390625 C 307.175781 311.386719 305.132812 313.335938 303.042969 315.230469 C 300.949219 317.125 298.8125 318.96875 296.628906 320.761719 C 294.449219 322.550781 292.222656 324.289062 289.957031 325.96875 C 287.6875 327.652344 285.378906 329.277344 283.035156 330.84375 C 280.6875 332.414062 278.300781 333.921875 275.878906 335.375 C 273.457031 336.824219 271.003906 338.214844 268.511719 339.546875 C 266.023438 340.878906 263.503906 342.148438 260.949219 343.355469 C 258.398438 344.5625 255.820312 345.703125 253.210938 346.785156 C 250.601562 347.867188 247.96875 348.882812 245.3125 349.832031 C 242.652344 350.785156 239.972656 351.667969 237.273438 352.488281 C 234.570312 353.308594 231.851562 354.058594 229.113281 354.746094 C 226.375 355.433594 223.621094 356.050781 220.851562 356.601562 C 218.082031 357.152344 215.300781 357.632812 212.507812 358.050781 C 209.714844 358.464844 206.914062 358.808594 204.105469 359.085938 C 201.296875 359.363281 198.480469 359.570312 195.660156 359.707031 C 192.84375 359.847656 190.019531 359.914062 187.199219 359.914062 C 184.375 359.914062 181.554688 359.847656 178.734375 359.707031 C 175.914062 359.570312 173.097656 359.363281 170.289062 359.085938 C 167.480469 358.808594 164.679688 358.464844 161.886719 358.050781 C 159.09375 357.632812 156.3125 357.152344 153.542969 356.601562 C 150.777344 356.050781 148.023438 355.433594 145.285156 354.746094 C 142.546875 354.058594 139.824219 353.308594 137.125 352.488281 C 134.421875 351.667969 131.742188 350.785156 129.085938 349.832031 C 126.425781 348.882812 123.792969 347.867188 121.183594 346.785156 C 118.578125 345.703125 115.996094 344.5625 113.445312 343.355469 C 110.890625 342.148438 108.371094 340.878906 105.882812 339.546875 C 103.390625 338.214844 100.9375 336.824219 98.515625 335.375 C 96.09375 333.921875 93.710938 332.414062 91.363281 330.84375 C 89.015625 329.277344 86.707031 327.652344 84.441406 325.96875 C 82.171875 324.289062 79.945312 322.550781 77.765625 320.761719 C 75.582031 318.96875 73.445312 317.125 71.355469 315.230469 C 69.261719 313.335938 67.21875 311.386719 65.222656 309.390625 C 63.226562 307.394531 61.28125 305.351562 59.382812 303.261719 C 57.488281 301.167969 55.644531 299.03125 53.851562 296.847656 C 52.0625 294.667969 50.324219 292.441406 48.644531 290.175781 C 46.960938 287.90625 45.335938 285.597656 43.769531 283.25 C 42.199219 280.90625 40.691406 278.519531 39.238281 276.097656 C 37.789062 273.675781 36.398438 271.222656 35.066406 268.730469 C 33.734375 266.242188 32.464844 263.722656 31.257812 261.167969 C 30.050781 258.617188 28.910156 256.035156 27.828125 253.429688 C 26.75 250.820312 25.730469 248.1875 24.78125 245.53125 C 23.832031 242.871094 22.945312 240.191406 22.125 237.488281 C 21.304688 234.789062 20.554688 232.070312 19.867188 229.328125 C 19.179688 226.589844 18.5625 223.835938 18.011719 221.070312 C 17.460938 218.300781 16.980469 215.519531 16.566406 212.726562 C 16.152344 209.933594 15.804688 207.132812 15.527344 204.324219 C 15.25 201.515625 15.042969 198.699219 14.90625 195.878906 C 14.765625 193.058594 14.699219 190.238281 14.699219 187.414062 C 14.699219 184.59375 14.765625 181.773438 14.90625 178.953125 C 15.042969 176.132812 15.25 173.316406 15.527344 170.507812 C 15.804688 167.699219 16.152344 164.898438 16.566406 162.105469 C 16.980469 159.3125 17.460938 156.53125 18.011719 153.761719 C 18.5625 150.992188 19.179688 148.242188 19.867188 145.5 C 20.554688 142.761719 21.304688 140.042969 22.125 137.34375 C 22.945312 134.640625 23.832031 131.960938 24.78125 129.300781 C 25.730469 126.644531 26.75 124.011719 27.828125 121.402344 C 28.910156 118.792969 30.050781 116.214844 31.257812 113.664062 C 32.464844 111.109375 33.734375 108.589844 35.066406 106.101562 C 36.398438 103.609375 37.789062 101.15625 39.238281 98.734375 C 40.691406 96.3125 42.199219 93.925781 43.769531 91.582031 C 45.335938 89.234375 46.960938 86.925781 48.644531 84.65625 C 50.324219 82.390625 52.0625 80.164062 53.851562 77.984375 C 55.644531 75.800781 57.488281 73.664062 59.382812 71.570312 C 61.28125 69.480469 63.226562 67.4375 65.222656 65.441406 C 67.21875 63.445312 69.261719 61.496094 71.355469 59.601562 C 73.445312 57.707031 75.582031 55.863281 77.765625 54.070312 C 79.945312 52.28125 82.171875 50.542969 84.441406 48.863281 C 86.707031 47.179688 89.015625 45.554688 91.363281 43.988281 C 93.710938 42.417969 96.09375 40.910156 98.515625 39.457031 C 100.9375 38.007812 103.390625 36.617188 105.882812 35.285156 C 108.371094 33.953125 110.890625 32.683594 113.445312 31.476562 C 115.996094 30.269531 118.578125 29.128906 121.183594 28.046875 C 123.792969 26.964844 126.425781 25.949219 129.085938 25 C 131.742188 24.046875 134.421875 23.164062 137.125 22.34375 C 139.824219 21.523438 142.546875 20.773438 145.285156 20.085938 C 148.023438 19.398438 150.777344 18.78125 153.542969 18.230469 C 156.3125 17.679688 159.09375 17.199219 161.886719 16.78125 C 164.679688 16.367188 167.480469 16.023438 170.289062 15.746094 C 173.097656 15.46875 175.914062 15.261719 178.734375 15.125 C 181.554688 14.984375 184.375 14.914062 187.199219 14.914062 C 190.019531 14.914062 192.84375 14.984375 195.660156 15.125 C 198.480469 15.261719 201.296875 15.46875 204.105469 15.746094 C 206.914062 16.023438 209.714844 16.367188 212.507812 16.78125 C 215.300781 17.199219 218.082031 17.679688 220.851562 18.230469 C 223.621094 18.78125 226.375 19.398438 229.113281 20.085938 C 231.851562 20.773438 234.570312 21.523438 237.273438 22.34375 C 239.972656 23.164062 242.652344 24.046875 245.3125 25 C 247.96875 25.949219 250.601562 26.964844 253.210938 28.046875 C 255.820312 29.128906 258.398438 30.269531 260.949219 31.476562 C 263.503906 32.683594 266.023438 33.953125 268.511719 35.285156 C 271.003906 36.617188 273.457031 38.007812 275.878906 39.457031 C 278.300781 40.910156 280.6875 42.417969 283.035156 43.988281 C 285.378906 45.554688 287.6875 47.179688 289.957031 48.863281 C 292.222656 50.542969 294.449219 52.28125 296.628906 54.070312 C 298.8125 55.863281 300.949219 57.707031 303.042969 59.601562 C 305.132812 61.496094 307.175781 63.445312 309.171875 65.441406 C 311.167969 67.4375 313.117188 69.480469 315.011719 71.570312 C 316.90625 73.664062 318.75 75.800781 320.542969 77.984375 C 322.332031 80.164062 324.070312 82.390625 325.75 84.65625 C 327.433594 86.925781 329.058594 89.234375 330.625 91.582031 C 332.195312 93.925781 333.703125 96.3125 335.15625 98.734375 C 336.605469 101.15625 338 103.609375 339.328125 106.101562 C 340.660156 108.589844 341.929688 111.109375 343.136719 113.664062 C 344.34375 116.214844 345.488281 118.792969 346.566406 121.402344 C 347.648438 124.011719 348.664062 126.644531 349.613281 129.300781 C 350.566406 131.960938 351.449219 134.640625 352.269531 137.34375 C 353.089844 140.042969 353.84375 142.761719 354.527344 145.5 C 355.214844 148.242188 355.832031 150.992188 356.382812 153.761719 C 356.933594 156.53125 357.417969 159.3125 357.832031 162.105469 C 358.246094 164.898438 358.589844 167.699219 358.867188 170.507812 C 359.144531 173.316406 359.351562 176.132812 359.488281 178.953125 C 359.628906 181.773438 359.699219 184.59375 359.699219 187.414062 Z M 359.699219 187.414062 " fill-opacity="1" fill-rule="nonzero"/></g><g clip-path="url(#11ad6487a9)"><path fill="#ef2d40" d="M 183.464844 51.640625 C 190.246094 54.191406 196.34375 57.1875 201.894531 60.5 C 200.078125 75.246094 194.785156 94.265625 180.332031 106.394531 C 189.777344 80.414062 183.464844 51.640625 183.464844 51.640625 Z M 127.980469 349.398438 C 165.105469 308.289062 189 265.683594 173.5625 256.972656 C 156.359375 247.269531 111.820312 266.015625 91.238281 264.203125 C 54.546875 260.96875 52.339844 223.546875 52.339844 223.546875 C 82.191406 221.742188 127.425781 181.988281 127.425781 181.988281 C 124.710938 166.628906 125.617188 139.527344 170.847656 120.554688 C 216.078125 101.582031 209.746094 38.339844 209.746094 38.339844 C 288.449219 78.996094 264.023438 171.148438 264.023438 171.148438 C 273.074219 167.535156 276.691406 137.71875 276.691406 137.71875 C 313.773438 173.574219 336.789062 210.164062 350.5625 244.664062 C 356.871094 226.753906 360.300781 207.488281 360.300781 187.421875 C 360.300781 92.148438 282.960938 14.90625 187.558594 14.90625 C 92.15625 14.90625 14.820312 92.148438 14.820312 187.421875 C 14.820312 261.789062 61.9375 325.160156 127.980469 349.398438 " fill-opacity="1" fill-rule="nonzero"/></g><path fill="#ef2d40" d="M 131.765625 179 C 139.710938 185.816406 148.703125 181.3125 155.507812 176.269531 C 163.714844 170.195312 174.496094 170.285156 174.496094 170.285156 C 174.496094 170.285156 142.355469 156.433594 131.765625 179 " fill-opacity="1" fill-rule="nonzero"/></svg>