<svg xmlns="http://www.w3.org/2000/svg" xmlns:xlink="http://www.w3.org/1999/xlink" width="500" zoomAndPan="magnify" viewBox="0 0 375 149.999998" height="200" preserveAspectRatio="xMidYMid meet" version="1.0"><defs><g/><clipPath id="1bb6173a34"><path d="M 4.917969 9.882812 L 371.667969 9.882812 L 371.667969 135.132812 L 4.917969 135.132812 Z M 4.917969 9.882812 " clip-rule="nonzero"/></clipPath><clipPath id="56f5733abf"><path d="M 15 13.273438 L 366 13.273438 L 366 131 L 15 131 Z M 15 13.273438 " clip-rule="nonzero"/></clipPath><clipPath id="5bf4947089"><path d="M 4.917969 10.726562 L 127.167969 10.726562 L 127.167969 129.226562 L 4.917969 129.226562 Z M 4.917969 10.726562 " clip-rule="nonzero"/></clipPath></defs><g clip-path="url(#1bb6173a34)"><path fill="#000000" d="M 4.929688 9.882812 L 371.660156 9.882812 L 371.660156 135.132812 L 4.929688 135.132812 L 4.929688 9.882812 " fill-opacity="1" fill-rule="nonzero"/></g><g clip-path="url(#56f5733abf)"><path fill="#ef2d40" d="M 366 130.957031 L 57.222656 130.957031 C 33.941406 130.957031 15 112.066406 15 88.847656 L 15 13.335938 L 323.777344 13.335938 C 347.058594 13.335938 366 32.226562 366 55.445312 Z M 16.398438 14.730469 L 16.398438 88.847656 C 16.398438 111.296875 34.710938 129.5625 57.222656 129.5625 L 364.601562 129.5625 L 364.601562 55.445312 C 364.601562 32.992188 346.289062 14.730469 323.777344 14.730469 Z M 16.398438 14.730469 " fill-opacity="1" fill-rule="nonzero"/></g><g clip-path="url(#5bf4947089)"><path fill="#ef2d40" d="M 64.589844 23.738281 C 66.988281 24.640625 69.144531 25.703125 71.109375 26.875 C 70.464844 32.101562 68.59375 38.839844 63.484375 43.132812 C 66.824219 33.929688 64.589844 23.738281 64.589844 23.738281 Z M 44.972656 129.222656 C 58.101562 114.660156 66.546875 99.566406 61.089844 96.480469 C 55.007812 93.042969 39.261719 99.683594 31.984375 99.039062 C 19.007812 97.894531 18.230469 84.636719 18.230469 84.636719 C 28.785156 83.996094 44.777344 69.914062 44.777344 69.914062 C 43.816406 64.472656 44.136719 54.871094 60.132812 48.152344 C 76.125 41.429688 73.882812 19.027344 73.882812 19.027344 C 101.710938 33.429688 93.074219 66.074219 93.074219 66.074219 C 96.273438 64.792969 97.554688 54.234375 97.554688 54.234375 C 110.664062 66.933594 118.804688 79.898438 123.671875 92.121094 C 125.902344 85.773438 127.117188 78.949219 127.117188 71.839844 C 127.117188 38.089844 99.769531 10.726562 66.039062 10.726562 C 32.308594 10.726562 4.964844 38.089844 4.964844 71.839844 C 4.964844 98.183594 21.621094 120.636719 44.972656 129.222656 " fill-opacity="1" fill-rule="nonzero"/></g><path fill="#ef2d40" d="M 46.3125 68.855469 C 49.121094 71.269531 52.300781 69.675781 54.707031 67.890625 C 57.609375 65.738281 61.421875 65.769531 61.421875 65.769531 C 61.421875 65.769531 50.058594 60.863281 46.3125 68.855469 " fill-opacity="1" fill-rule="nonzero"/><g fill="#ef2d40" fill-opacity="1"><g transform="translate(263.410042, 113.632055)"><g><path d="M 11.007812 0.355469 C 15.804688 0.355469 19.457031 -3.027344 19.457031 -7.429688 C 19.457031 -11.519531 16.234375 -13.679688 13.40625 -15.960938 C 10.890625 -17.964844 8.453125 -19.617188 8.453125 -22.015625 C 8.453125 -24.332031 10.261719 -25.433594 12.066406 -25.433594 C 13.757812 -25.433594 15.410156 -24.449219 15.410156 -22.523438 C 15.410156 -22.015625 15.332031 -21.777344 15.332031 -21.386719 C 15.332031 -20.714844 15.84375 -20.285156 16.550781 -20.285156 C 17.414062 -20.285156 17.964844 -21.148438 17.964844 -22.644531 C 17.964844 -26.179688 15.09375 -27.910156 12.148438 -27.910156 C 8.960938 -27.910156 5.699219 -25.945312 5.699219 -22.132812 C 5.699219 -18.4375 8.84375 -16.117188 11.792969 -13.835938 C 14.269531 -11.910156 16.707031 -10.179688 16.707031 -7.429688 C 16.707031 -4.363281 14.347656 -2.121094 11.007812 -2.121094 C 7.824219 -2.121094 5.503906 -4.167969 5.503906 -6.917969 C 5.503906 -8.492188 6.210938 -9.945312 6.210938 -10.691406 C 6.210938 -11.359375 5.699219 -11.871094 4.992188 -11.871094 C 4.324219 -11.871094 3.773438 -11.398438 3.5 -10.652344 C 2.988281 -9.238281 2.75 -8.019531 2.75 -6.957031 C 2.75 -2.632812 6.132812 0.355469 11.007812 0.355469 Z M 11.007812 0.355469 "/></g></g></g><g fill="#ef2d40" fill-opacity="1"><g transform="translate(282.27918, 113.632055)"><g><path d="M 11.949219 -9.160156 C 10.496094 -5.464844 8.648438 -2.476562 6.289062 -2.476562 C 4.480469 -2.476562 3.578125 -3.695312 3.578125 -6.367188 C 3.578125 -7.980469 3.890625 -10.730469 4.324219 -13.367188 C 4.441406 -13.996094 4.597656 -15.171875 4.796875 -16.589844 C 6.761719 -16.390625 8.136719 -16.117188 8.609375 -16.117188 C 9.238281 -16.117188 9.632812 -16.667969 9.632812 -17.21875 C 9.632812 -17.691406 9.355469 -18.121094 8.726562 -18.28125 C 7.507812 -18.59375 6.328125 -18.75 5.109375 -18.867188 C 5.386719 -21.148438 5.660156 -23.390625 5.660156 -24.175781 C 5.660156 -24.960938 5.1875 -25.472656 4.441406 -25.472656 C 3.65625 -25.472656 3.105469 -25 3.066406 -24.214844 C 2.988281 -22.484375 2.792969 -20.714844 2.554688 -19.027344 L 1.21875 -19.027344 C 0.316406 -19.027344 -0.117188 -18.476562 -0.117188 -17.925781 C -0.117188 -17.335938 0.316406 -16.785156 1.140625 -16.785156 L 2.242188 -16.785156 C 2.082031 -15.683594 1.925781 -14.664062 1.769531 -13.757812 C 1.335938 -11.007812 0.984375 -8.332031 0.984375 -6.566406 C 0.984375 -2.359375 2.75 -0.0390625 6.09375 -0.0390625 C 9.945312 -0.0390625 12.34375 -4.207031 13.835938 -8.332031 C 13.914062 -8.570312 13.957031 -8.765625 13.957031 -8.960938 C 13.957031 -9.632812 13.523438 -10.0625 13.011719 -10.0625 C 12.617188 -10.0625 12.1875 -9.789062 11.949219 -9.160156 Z M 11.949219 -9.160156 "/></g></g></g><g fill="#ef2d40" fill-opacity="1"><g transform="translate(292.932402, 113.632055)"><g><path d="M 18.4375 -9.160156 C 16.628906 -4.636719 15.410156 -2.320312 14.464844 -2.320312 C 13.484375 -2.320312 13.089844 -3.734375 13.089844 -7.113281 C 13.089844 -8.882812 13.207031 -11.164062 13.71875 -14.464844 C 13.835938 -15.253906 13.285156 -15.84375 12.539062 -15.84375 C 11.792969 -15.84375 11.28125 -15.410156 11.203125 -14.703125 C 11.046875 -13.207031 10.851562 -11.558594 10.730469 -9.867188 C 10.101562 -4.679688 7.664062 -2.320312 5.425781 -2.320312 C 4.089844 -2.320312 3.421875 -3.027344 3.421875 -4.480469 C 3.421875 -6.761719 4.363281 -10.851562 4.363281 -13.71875 C 4.363281 -15.171875 3.222656 -16.433594 1.847656 -16.433594 C 1.101562 -16.433594 0.589844 -15.960938 0.589844 -15.292969 C 0.589844 -14.269531 1.730469 -14.503906 1.730469 -13.011719 C 1.730469 -11.007812 0.824219 -7.351562 0.824219 -4.324219 C 0.824219 -1.652344 2.632812 0.117188 5.226562 0.117188 C 7.429688 0.117188 9.394531 -1.140625 10.851562 -3.8125 C 11.398438 -0.945312 12.738281 0.117188 14.230469 0.117188 C 16.433594 0.117188 17.964844 -2.042969 20.324219 -8.332031 C 20.402344 -8.53125 20.441406 -8.6875 20.441406 -8.84375 C 20.441406 -9.511719 19.929688 -9.945312 19.417969 -9.945312 C 19.066406 -9.945312 18.671875 -9.710938 18.4375 -9.160156 Z M 18.4375 -9.160156 "/></g></g></g><g fill="#ef2d40" fill-opacity="1"><g transform="translate(310.071881, 113.632055)"><g><path d="M 20.875 -9.160156 C 19.339844 -5.464844 17.414062 -2.476562 16 -2.476562 C 14.585938 -2.476562 13.914062 -5.03125 13.5625 -8.019531 C 15.527344 -11.28125 19.300781 -18.710938 19.300781 -23.78125 C 19.300781 -26.457031 17.964844 -27.871094 16 -27.871094 C 13.328125 -27.871094 10.808594 -25.394531 10.769531 -15.605469 C 10.140625 -16 9.394531 -16.234375 8.492188 -16.234375 C 3.929688 -16.234375 0.945312 -10.535156 0.945312 -5.855469 C 0.945312 -2.042969 3.144531 0.078125 5.9375 0.078125 C 8.414062 0.078125 10.535156 -1.808594 11.753906 -4.167969 C 12.34375 -1.574219 13.835938 -0.0390625 15.644531 -0.0390625 C 18.789062 -0.0390625 21.03125 -4.050781 22.761719 -8.332031 C 22.839844 -8.53125 22.878906 -8.6875 22.878906 -8.882812 C 22.878906 -9.511719 22.367188 -10.023438 21.855469 -10.023438 C 21.503906 -10.023438 21.109375 -9.75 20.875 -9.160156 Z M 15.882812 -25.433594 C 16.390625 -25.433594 16.746094 -25.078125 16.746094 -23.863281 C 16.746094 -22.054688 15.410156 -16.273438 13.328125 -12.066406 C 13.285156 -12.972656 13.285156 -13.796875 13.285156 -14.503906 C 13.285156 -23.742188 14.976562 -25.433594 15.882812 -25.433594 Z M 6.171875 -2.359375 C 4.597656 -2.359375 3.539062 -3.460938 3.539062 -6.015625 C 3.539062 -9.394531 5.621094 -13.875 8.804688 -13.875 C 10.261719 -13.875 11.242188 -12.738281 11.242188 -10.535156 C 11.242188 -5.542969 8.292969 -2.359375 6.171875 -2.359375 Z M 6.171875 -2.359375 "/></g></g></g><g fill="#ef2d40" fill-opacity="1"><g transform="translate(329.648618, 113.632055)"><g><path d="M 3.96875 -17.730469 C 4.835938 -17.730469 5.503906 -18.398438 5.503906 -19.261719 C 5.503906 -20.125 4.835938 -20.796875 3.96875 -20.796875 C 3.105469 -20.796875 2.4375 -20.125 2.4375 -19.261719 C 2.4375 -18.398438 3.105469 -17.730469 3.96875 -17.730469 Z M 5.1875 0.15625 C 7.585938 0.15625 9.632812 -2.359375 11.832031 -8.332031 C 11.910156 -8.53125 11.949219 -8.726562 11.949219 -8.882812 C 11.949219 -9.550781 11.480469 -10.023438 10.96875 -10.023438 C 10.574219 -10.023438 10.179688 -9.75 9.945312 -9.160156 C 8.019531 -4.402344 6.800781 -2.28125 5.503906 -2.28125 C 4.558594 -2.28125 3.734375 -3.105469 3.734375 -5.898438 C 3.734375 -7.585938 3.929688 -9.671875 4.597656 -14.074219 C 4.757812 -15.09375 4.089844 -15.683594 3.421875 -15.683594 C 2.792969 -15.683594 2.160156 -15.253906 1.964844 -14.191406 C 1.574219 -11.988281 1.140625 -8.175781 1.140625 -6.132812 C 1.140625 -1.53125 2.910156 0.15625 5.1875 0.15625 Z M 5.1875 0.15625 "/></g></g></g><g fill="#ef2d40" fill-opacity="1"><g transform="translate(338.29696, 113.632055)"><g><path d="M 17.0625 -9.160156 C 16.273438 -7.3125 15.253906 -6.171875 13.914062 -5.738281 C 14.269531 -6.761719 14.425781 -7.941406 14.425781 -9.160156 C 14.425781 -12.421875 12.972656 -14.742188 11.046875 -15.488281 C 10.339844 -15.761719 9.277344 -16.039062 8.332031 -16.039062 C 4.167969 -16.039062 0.863281 -11.949219 0.863281 -6.683594 C 0.863281 -2.515625 3.183594 0.078125 6.800781 0.078125 C 9.316406 0.078125 11.4375 -1.21875 12.816406 -3.300781 C 15.292969 -3.5 17.691406 -5.148438 18.949219 -8.332031 C 19.027344 -8.570312 19.066406 -8.804688 19.066406 -9.003906 C 19.066406 -9.671875 18.632812 -10.101562 18.121094 -10.101562 C 17.769531 -10.101562 17.335938 -9.828125 17.0625 -9.160156 Z M 11.203125 -5.621094 C 9.472656 -6.09375 8.058594 -7.664062 8.058594 -10.179688 C 8.058594 -12.1875 8.6875 -13.285156 9.710938 -13.285156 C 11.046875 -13.285156 11.832031 -11.675781 11.832031 -9.121094 C 11.832031 -7.824219 11.597656 -6.605469 11.203125 -5.621094 Z M 6.878906 -2.359375 C 4.480469 -2.359375 3.460938 -4.441406 3.460938 -6.800781 C 3.460938 -9.238281 4.519531 -11.988281 6.445312 -13.128906 C 5.976562 -12.265625 5.699219 -11.203125 5.699219 -10.023438 C 5.699219 -6.722656 7.546875 -4.519531 9.945312 -3.65625 C 9.121094 -2.832031 8.058594 -2.359375 6.878906 -2.359375 Z M 6.878906 -2.359375 "/></g></g></g><g fill="#ef2d40" fill-opacity="1"><g transform="translate(130.86392, 74.905632)"><g><path d="M 13.25 -6.3125 L 15.859375 -15.3125 L 13.96875 -21.296875 L 12.1875 -21.296875 L 12.1875 -21.890625 L 21.890625 -21.890625 L 21.890625 -21.296875 L 20.046875 -21.296875 L 24.703125 -6.5 L 28.453125 -21.296875 L 25.296875 -21.296875 L 25.296875 -21.890625 L 31.546875 -21.890625 L 31.546875 -21.296875 L 29.484375 -21.296875 L 23.734375 0.3125 L 20.953125 0.3125 L 16.328125 -13.8125 L 12.25 0.3125 L 9.53125 0.3125 L 1.65625 -21.296875 L 0.1875 -21.296875 L 0.1875 -21.890625 L 10.34375 -21.890625 L 10.34375 -21.296875 L 8.15625 -21.296875 Z M 13.25 -6.3125 "/></g></g></g><g fill="#ef2d40" fill-opacity="1"><g transform="translate(162.598522, 74.905632)"><g><path d="M 15.671875 -9.65625 L 15.671875 -11.96875 C 15.671875 -15.789062 15.476562 -18.203125 15.09375 -19.203125 C 14.675781 -20.347656 14.082031 -21.054688 13.3125 -21.328125 C 12.875 -21.492188 12.34375 -21.578125 11.71875 -21.578125 C 11.09375 -21.578125 10.554688 -21.492188 10.109375 -21.328125 C 9.660156 -21.160156 9.289062 -20.867188 9 -20.453125 C 8.707031 -20.035156 8.472656 -19.597656 8.296875 -19.140625 C 8.117188 -18.679688 7.976562 -18.035156 7.875 -17.203125 C 7.75 -15.984375 7.6875 -14.195312 7.6875 -11.84375 L 7.6875 -9.59375 C 7.6875 -7.050781 7.785156 -5.242188 7.984375 -4.171875 C 8.179688 -3.097656 8.425781 -2.332031 8.71875 -1.875 C 9.363281 -0.851562 10.363281 -0.34375 11.71875 -0.34375 C 13.363281 -0.34375 14.429688 -1.035156 14.921875 -2.421875 C 15.421875 -3.804688 15.671875 -6.21875 15.671875 -9.65625 Z M 11.65625 0.3125 C 8.175781 0.3125 5.578125 -0.628906 3.859375 -2.515625 C 2.140625 -4.398438 1.28125 -7.128906 1.28125 -10.703125 C 1.28125 -14.285156 2.203125 -17.101562 4.046875 -19.15625 C 5.890625 -21.207031 8.5 -22.234375 11.875 -22.234375 C 15.257812 -22.234375 17.8125 -21.257812 19.53125 -19.3125 C 21.25 -17.363281 22.109375 -14.59375 22.109375 -11 C 22.109375 -7.414062 21.238281 -4.632812 19.5 -2.65625 C 17.757812 -0.675781 15.144531 0.3125 11.65625 0.3125 Z M 11.65625 0.3125 "/></g></g></g><g fill="#ef2d40" fill-opacity="1"><g transform="translate(185.985198, 74.905632)"><g><path d="M 0.65625 -21.890625 L 11.90625 -21.890625 L 11.90625 -21.203125 L 8.59375 -21.203125 L 8.59375 -0.6875 L 9.71875 -0.6875 C 11.488281 -0.6875 12.898438 -1.226562 13.953125 -2.3125 C 15.015625 -3.394531 16.085938 -5.0625 17.171875 -7.3125 L 17.828125 -7.3125 L 17.234375 0 L 0.65625 0 L 0.65625 -0.6875 L 2.5 -0.6875 L 2.5 -21.203125 L 0.65625 -21.203125 Z M 0.65625 -21.890625 "/></g></g></g><g fill="#ef2d40" fill-opacity="1"><g transform="translate(204.619508, 74.905632)"><g><path d="M 0.65625 -21.890625 L 16.921875 -21.890625 L 17.234375 -15.375 L 16.671875 -15.375 C 15.890625 -17.632812 14.992188 -19.171875 13.984375 -19.984375 C 12.972656 -20.796875 11.46875 -21.203125 9.46875 -21.203125 L 8.59375 -21.203125 L 8.59375 -11.03125 L 10 -11.03125 C 11 -11.03125 11.832031 -11.394531 12.5 -12.125 C 13.164062 -12.851562 13.625 -13.851562 13.875 -15.125 L 14.34375 -15.125 L 14.34375 -5.875 L 13.8125 -5.875 C 13.476562 -7.4375 13.015625 -8.550781 12.421875 -9.21875 C 11.828125 -9.882812 11.019531 -10.21875 10 -10.21875 L 8.59375 -10.21875 L 8.59375 -0.6875 L 12.46875 -0.6875 L 12.46875 0 L 0.65625 0 L 0.65625 -0.6875 L 2.5 -0.6875 L 2.5 -21.203125 L 0.65625 -21.203125 Z M 0.65625 -21.890625 "/></g></g></g><g fill="#ef2d40" fill-opacity="1"><g transform="translate(223.128758, 74.905632)"><g/></g></g><g fill="#ef2d40" fill-opacity="1"><g transform="translate(228.756573, 74.905632)"><g><path d="M 19.890625 -21.890625 L 20.203125 -14.03125 L 19.609375 -14.03125 C 18.691406 -16.8125 17.878906 -18.707031 17.171875 -19.71875 C 16.460938 -20.726562 15.4375 -21.234375 14.09375 -21.234375 L 13.71875 -21.234375 L 13.71875 -0.65625 L 16.390625 -0.65625 L 16.390625 0 L 4.96875 0 L 4.96875 -0.65625 L 7.625 -0.65625 L 7.625 -21.234375 L 7.21875 -21.234375 C 5.882812 -21.234375 4.851562 -20.707031 4.125 -19.65625 C 3.394531 -18.601562 2.59375 -16.726562 1.71875 -14.03125 L 1.125 -14.03125 L 1.4375 -21.890625 Z M 19.890625 -21.890625 "/></g></g></g><g fill="#ef2d40" fill-opacity="1"><g transform="translate(250.110984, 74.905632)"><g><path d="M 13.5 -0.59375 L 11.21875 -7.34375 L 5.03125 -7.34375 L 2.625 -0.59375 L 4.96875 -0.59375 L 4.96875 0 L 0.1875 0 L 0.1875 -0.59375 L 1.65625 -0.59375 L 9.625 -22.078125 L 12.1875 -22.078125 L 20.078125 -0.59375 L 21.515625 -0.59375 L 21.515625 0 L 11.28125 0 L 11.28125 -0.59375 Z M 8.25 -16.234375 L 5.3125 -8.03125 L 10.96875 -8.03125 Z M 8.25 -16.234375 "/></g></g></g><g fill="#ef2d40" fill-opacity="1"><g transform="translate(271.809324, 74.905632)"><g><path d="M 19.890625 -21.890625 L 20.203125 -14.03125 L 19.609375 -14.03125 C 18.691406 -16.8125 17.878906 -18.707031 17.171875 -19.71875 C 16.460938 -20.726562 15.4375 -21.234375 14.09375 -21.234375 L 13.71875 -21.234375 L 13.71875 -0.65625 L 16.390625 -0.65625 L 16.390625 0 L 4.96875 0 L 4.96875 -0.65625 L 7.625 -0.65625 L 7.625 -21.234375 L 7.21875 -21.234375 C 5.882812 -21.234375 4.851562 -20.707031 4.125 -19.65625 C 3.394531 -18.601562 2.59375 -16.726562 1.71875 -14.03125 L 1.125 -14.03125 L 1.4375 -21.890625 Z M 19.890625 -21.890625 "/></g></g></g><g fill="#ef2d40" fill-opacity="1"><g transform="translate(293.163734, 74.905632)"><g><path d="M 19.890625 -21.890625 L 20.203125 -14.03125 L 19.609375 -14.03125 C 18.691406 -16.8125 17.878906 -18.707031 17.171875 -19.71875 C 16.460938 -20.726562 15.4375 -21.234375 14.09375 -21.234375 L 13.71875 -21.234375 L 13.71875 -0.65625 L 16.390625 -0.65625 L 16.390625 0 L 4.96875 0 L 4.96875 -0.65625 L 7.625 -0.65625 L 7.625 -21.234375 L 7.21875 -21.234375 C 5.882812 -21.234375 4.851562 -20.707031 4.125 -19.65625 C 3.394531 -18.601562 2.59375 -16.726562 1.71875 -14.03125 L 1.125 -14.03125 L 1.4375 -21.890625 Z M 19.890625 -21.890625 "/></g></g></g><g fill="#ef2d40" fill-opacity="1"><g transform="translate(314.518145, 74.905632)"><g><path d="M 15.671875 -9.65625 L 15.671875 -11.96875 C 15.671875 -15.789062 15.476562 -18.203125 15.09375 -19.203125 C 14.675781 -20.347656 14.082031 -21.054688 13.3125 -21.328125 C 12.875 -21.492188 12.34375 -21.578125 11.71875 -21.578125 C 11.09375 -21.578125 10.554688 -21.492188 10.109375 -21.328125 C 9.660156 -21.160156 9.289062 -20.867188 9 -20.453125 C 8.707031 -20.035156 8.472656 -19.597656 8.296875 -19.140625 C 8.117188 -18.679688 7.976562 -18.035156 7.875 -17.203125 C 7.75 -15.984375 7.6875 -14.195312 7.6875 -11.84375 L 7.6875 -9.59375 C 7.6875 -7.050781 7.785156 -5.242188 7.984375 -4.171875 C 8.179688 -3.097656 8.425781 -2.332031 8.71875 -1.875 C 9.363281 -0.851562 10.363281 -0.34375 11.71875 -0.34375 C 13.363281 -0.34375 14.429688 -1.035156 14.921875 -2.421875 C 15.421875 -3.804688 15.671875 -6.21875 15.671875 -9.65625 Z M 11.65625 0.3125 C 8.175781 0.3125 5.578125 -0.628906 3.859375 -2.515625 C 2.140625 -4.398438 1.28125 -7.128906 1.28125 -10.703125 C 1.28125 -14.285156 2.203125 -17.101562 4.046875 -19.15625 C 5.890625 -21.207031 8.5 -22.234375 11.875 -22.234375 C 15.257812 -22.234375 17.8125 -21.257812 19.53125 -19.3125 C 21.25 -17.363281 22.109375 -14.59375 22.109375 -11 C 22.109375 -7.414062 21.238281 -4.632812 19.5 -2.65625 C 17.757812 -0.675781 15.144531 0.3125 11.65625 0.3125 Z M 11.65625 0.3125 "/></g></g></g><g fill="#ef2d40" fill-opacity="1"><g transform="translate(337.904832, 74.905632)"><g><path d="M 15.671875 -9.65625 L 15.671875 -11.96875 C 15.671875 -15.789062 15.476562 -18.203125 15.09375 -19.203125 C 14.675781 -20.347656 14.082031 -21.054688 13.3125 -21.328125 C 12.875 -21.492188 12.34375 -21.578125 11.71875 -21.578125 C 11.09375 -21.578125 10.554688 -21.492188 10.109375 -21.328125 C 9.660156 -21.160156 9.289062 -20.867188 9 -20.453125 C 8.707031 -20.035156 8.472656 -19.597656 8.296875 -19.140625 C 8.117188 -18.679688 7.976562 -18.035156 7.875 -17.203125 C 7.75 -15.984375 7.6875 -14.195312 7.6875 -11.84375 L 7.6875 -9.59375 C 7.6875 -7.050781 7.785156 -5.242188 7.984375 -4.171875 C 8.179688 -3.097656 8.425781 -2.332031 8.71875 -1.875 C 9.363281 -0.851562 10.363281 -0.34375 11.71875 -0.34375 C 13.363281 -0.34375 14.429688 -1.035156 14.921875 -2.421875 C 15.421875 -3.804688 15.671875 -6.21875 15.671875 -9.65625 Z M 11.65625 0.3125 C 8.175781 0.3125 5.578125 -0.628906 3.859375 -2.515625 C 2.140625 -4.398438 1.28125 -7.128906 1.28125 -10.703125 C 1.28125 -14.285156 2.203125 -17.101562 4.046875 -19.15625 C 5.890625 -21.207031 8.5 -22.234375 11.875 -22.234375 C 15.257812 -22.234375 17.8125 -21.257812 19.53125 -19.3125 C 21.25 -17.363281 22.109375 -14.59375 22.109375 -11 C 22.109375 -7.414062 21.238281 -4.632812 19.5 -2.65625 C 17.757812 -0.675781 15.144531 0.3125 11.65625 0.3125 Z M 11.65625 0.3125 "/></g></g></g></svg>